<svg width="24" height="24" viewBox="0 0 24 24" fill="none" xmlns="http://www.w3.org/2000/svg">
<path d="M7 20C7.26522 20 7.51957 19.8947 7.70711 19.7071C7.89464 19.5196 8 19.2652 8 19C8 18.7348 7.89464 18.4805 7.70711 18.2929C7.51957 18.1054 7.26522 18 7 18C6.73478 18 6.48043 18.1054 6.29289 18.2929C6.10536 18.4805 6 18.7348 6 19C6 19.2652 6.10536 19.5196 6.29289 19.7071C6.48043 19.8947 6.73478 20 7 20ZM8 12.998V16.171C8.66749 16.4069 9.23009 16.8712 9.58836 17.4818C9.94662 18.0924 10.0775 18.81 9.95781 19.5078C9.83814 20.2056 9.47563 20.8386 8.93437 21.2949C8.39311 21.7512 7.70795 22.0015 7 22.0015C6.29205 22.0015 5.60689 21.7512 5.06563 21.2949C4.52437 20.8386 4.16186 20.2056 4.04219 19.5078C3.92251 18.81 4.05337 18.0924 4.41164 17.4818C4.76991 16.8712 5.33251 16.4069 6 16.171V7.82902C5.33251 7.59312 4.76991 7.12883 4.41164 6.51822C4.05337 5.90761 3.92251 5.19 4.04219 4.49223C4.16186 3.79447 4.52437 3.16148 5.06563 2.70515C5.60689 2.24882 6.29205 1.99854 7 1.99854C7.70795 1.99854 8.39311 2.24882 8.93437 2.70515C9.47563 3.16148 9.83814 3.79447 9.95781 4.49223C10.0775 5.19 9.94662 5.90761 9.58836 6.51822C9.23009 7.12883 8.66749 7.59312 8 7.82902V10.169C8.312 10.059 8.647 9.99902 8.997 9.99802L15.034 9.99202C15.299 9.99176 15.5531 9.88628 15.7405 9.69878C15.9278 9.51127 16.033 9.25707 16.033 8.99202V7.84002C15.3614 7.60992 14.7931 7.14915 14.4291 6.5396C14.0651 5.93006 13.929 5.2112 14.045 4.51078C14.1609 3.81036 14.5215 3.17374 15.0625 2.71405C15.6036 2.25435 16.29 2.00136 17 2.00002C17.7049 1.99973 18.3874 2.24766 18.9277 2.70031C19.4681 3.15297 19.8318 3.78144 19.955 4.47548C20.0783 5.16952 19.9532 5.88479 19.6017 6.49582C19.2503 7.10684 18.6949 7.5746 18.033 7.81702V8.99202C18.033 9.78715 17.7173 10.5498 17.1554 11.1123C16.5934 11.6748 15.8311 11.9912 15.036 11.992L8.999 11.998C8.73396 11.9983 8.47986 12.1038 8.29254 12.2913C8.10522 12.4788 8 12.733 8 12.998ZM7 6.00002C7.26522 6.00002 7.51957 5.89467 7.70711 5.70713C7.89464 5.51959 8 5.26524 8 5.00002C8 4.73481 7.89464 4.48045 7.70711 4.29292C7.51957 4.10538 7.26522 4.00002 7 4.00002C6.73478 4.00002 6.48043 4.10538 6.29289 4.29292C6.10536 4.48045 6 4.73481 6 5.00002C6 5.26524 6.10536 5.51959 6.29289 5.70713C6.48043 5.89467 6.73478 6.00002 7 6.00002ZM17 6.00002C17.2652 6.00002 17.5196 5.89467 17.7071 5.70713C17.8946 5.51959 18 5.26524 18 5.00002C18 4.73481 17.8946 4.48045 17.7071 4.29292C17.5196 4.10538 17.2652 4.00002 17 4.00002C16.7348 4.00002 16.4804 4.10538 16.2929 4.29292C16.1054 4.48045 16 4.73481 16 5.00002C16 5.26524 16.1054 5.51959 16.2929 5.70713C16.4804 5.89467 16.7348 6.00002 17 6.00002Z" fill="#475569"/>
</svg>
