<svg width="454" height="11" viewBox="0 0 454 11" fill="none" xmlns="http://www.w3.org/2000/svg">
<path d="M5 9.69381C2.69875 9.69381 0.833328 7.82839 0.833328 5.52714C0.833328 3.22589 2.69875 1.36047 5 1.36047C7.30125 1.36047 9.16666 3.22589 9.16666 5.52714C9.16666 7.82839 7.30125 9.69381 5 9.69381Z" fill="#E11D48"/>
<path d="M20 9.69381C17.6987 9.69381 15.8333 7.82839 15.8333 5.52714C15.8333 3.22589 17.6987 1.36047 20 1.36047C22.3012 1.36047 24.1667 3.22589 24.1667 5.52714C24.1667 7.82839 22.3012 9.69381 20 9.69381Z" fill="#FBBF24"/>
<path d="M35 9.69381C32.6987 9.69381 30.8333 7.82839 30.8333 5.52714C30.8333 3.22589 32.6987 1.36047 35 1.36047C37.3012 1.36047 39.1667 3.22589 39.1667 5.52714C39.1667 7.82839 37.3012 9.69381 35 9.69381Z" fill="#22C55E"/>
</svg>
