<svg width="25" height="24" viewBox="0 0 25 24" fill="none" xmlns="http://www.w3.org/2000/svg">
<path d="M7.33332 19C6.6101 18.9996 5.89557 18.8423 5.23903 18.5389C4.58249 18.2356 3.99958 17.7935 3.53049 17.243C3.0614 16.6925 2.71732 16.0468 2.52197 15.3505C2.32662 14.6542 2.28466 13.9237 2.39898 13.2096C2.51331 12.4955 2.78119 11.8146 3.18415 11.2141C3.58712 10.6135 4.11557 10.1075 4.73305 9.73101C5.35054 9.35449 6.04235 9.1164 6.76077 9.03318C7.47919 8.94996 8.20711 9.02358 8.89432 9.24897C9.52889 7.7666 10.6556 6.54868 12.0843 5.80092C13.5129 5.05315 15.1558 4.82139 16.7355 5.14476C18.3153 5.46813 19.735 6.32683 20.7548 7.57581C21.7747 8.82478 22.3323 10.3875 22.3333 12C22.3333 13.8565 21.5958 15.637 20.2831 16.9497C18.9703 18.2625 17.1898 19 15.3333 19H7.33332ZM7.33332 17H15.3333C16.2363 16.9996 17.1223 16.7546 17.8973 16.2912C18.6722 15.8277 19.3072 15.1631 19.7348 14.3678C20.1624 13.5725 20.3667 12.6762 20.3259 11.7742C20.2851 10.8721 20.0008 9.99794 19.5032 9.24447C19.0056 8.49099 18.3132 7.88634 17.4996 7.49471C16.686 7.10309 15.7815 6.9391 14.8821 7.02016C13.9828 7.10122 13.1222 7.42431 12.3918 7.95512C11.6613 8.48594 11.0882 9.20465 10.7333 10.035L10.0133 11.721L8.27132 11.149C7.8591 11.014 7.4225 10.97 6.99162 11.02C6.56075 11.07 6.14585 11.2129 5.77552 11.4388C5.4052 11.6646 5.08826 11.9681 4.84655 12.3283C4.60484 12.6885 4.44412 13.0968 4.37545 13.5251C4.30679 13.9534 4.33182 14.3915 4.44883 14.8092C4.56583 15.2269 4.77202 15.6142 5.05318 15.9445C5.33435 16.2748 5.68379 16.5402 6.07744 16.7225C6.47108 16.9047 6.89955 16.9993 7.33332 17Z" fill="#475569"/>
</svg>
