<svg width="25" height="24" viewBox="0 0 25 24" fill="none" xmlns="http://www.w3.org/2000/svg">
<path d="M13.2156 2.25997C12.9546 2.08703 12.6476 1.99647 12.3345 2.00004C12.0214 2.00361 11.7166 2.10113 11.4596 2.27997L3.59462 7.75997C3.17462 8.05197 2.92462 8.52997 2.92462 9.04197V14.945C2.92462 15.47 3.18862 15.959 3.62662 16.248L11.6206 21.533C11.8762 21.7019 12.1758 21.792 12.4821 21.792C12.7885 21.792 13.0881 21.7019 13.3436 21.533L21.4966 16.147C21.9346 15.857 22.1976 15.367 22.1976 14.843V9.04297C22.1976 8.51897 21.9346 8.02997 21.4976 7.73997L13.2156 2.25997ZM19.3056 8.65297L16.2916 10.676L13.4656 8.62097L13.4476 4.57897L19.3046 8.65297H19.3056ZM11.4036 4.58297V8.53997L8.50662 10.564L5.61962 8.62697L11.4036 4.58297ZM4.82662 10.576L6.69662 11.829L4.82662 13.137V10.577V10.576ZM11.4516 19.009L5.62062 15.1L8.53362 13.063L11.4536 15.021V19.011L11.4516 19.009ZM10.3466 11.796L12.2346 10.476L14.4346 11.921L12.4846 13.231L10.3466 11.796ZM13.5136 19.009V15.019L16.3036 13.149L19.3066 15.124L13.5136 19.009ZM20.1386 13.204L18.1586 11.904L20.1386 10.575V13.205V13.204Z" fill="#475569"/>
</svg>
