<svg width="25" height="24" viewBox="0 0 25 24" fill="none" xmlns="http://www.w3.org/2000/svg">
<path d="M22.6667 10.163C22.3407 10.3463 22.0693 10.613 21.8806 10.9359C21.6918 11.2587 21.5924 11.626 21.5927 12C21.5927 12.789 22.0257 13.476 22.6667 13.837L21.9497 16.243C21.5621 16.1763 21.1636 16.2196 20.7994 16.3678C20.4351 16.516 20.1197 16.7633 19.8888 17.0816C19.6579 17.3999 19.5208 17.7766 19.493 18.1688C19.4653 18.5611 19.5479 18.9533 19.7317 19.301L17.6697 20.903C17.3967 20.6792 17.0718 20.5277 16.7248 20.4624C16.3779 20.3971 16.0202 20.4202 15.6845 20.5295C15.3489 20.6387 15.0461 20.8307 14.8041 21.0877C14.5621 21.3447 14.3886 21.6584 14.2997 22L11.0097 21.992C10.9197 21.652 10.746 21.34 10.5044 21.0845C10.2628 20.829 9.96105 20.6381 9.62664 20.5292C9.29224 20.4204 8.9359 20.3972 8.59019 20.4616C8.24448 20.526 7.92043 20.676 7.64766 20.898L5.58766 19.283C5.76623 18.9367 5.84521 18.5477 5.8158 18.1592C5.78639 17.7708 5.64975 17.3981 5.42108 17.0826C5.19242 16.7672 4.8807 16.5214 4.52063 16.3727C4.16057 16.2239 3.76628 16.178 3.38166 16.24L2.66666 13.825C2.98661 13.6398 3.25217 13.3737 3.43666 13.0533C3.62115 12.733 3.71806 12.3697 3.71766 12C3.71766 11.22 3.29666 10.54 2.66666 10.175L3.38166 7.76C3.76635 7.82225 4.16078 7.77648 4.521 7.6278C4.88123 7.47912 5.19311 7.23336 5.42191 6.9179C5.6507 6.60243 5.78744 6.22964 5.81688 5.84106C5.84632 5.45247 5.76731 5.06334 5.58866 4.717L7.64666 3.102C7.91943 3.32395 8.24348 3.47399 8.58919 3.53841C8.9349 3.60283 9.29124 3.57957 9.62564 3.47075C9.96005 3.36194 10.2618 3.17104 10.5034 2.91551C10.745 2.65998 10.9187 2.34797 11.0087 2.008L14.3007 2C14.3896 2.34161 14.5631 2.65535 14.8051 2.91233C15.0471 3.16931 15.3499 3.36127 15.6855 3.47053C16.0212 3.5798 16.3789 3.60285 16.7258 3.53758C17.0728 3.4723 17.3977 3.32079 17.6707 3.097L19.7307 4.7C19.5469 5.04769 19.4643 5.43989 19.492 5.83215C19.5198 6.22442 19.6569 6.60106 19.8878 6.91938C20.1187 7.23771 20.4341 7.485 20.7984 7.63322C21.1626 7.78144 21.5611 7.82467 21.9487 7.758L22.6667 10.162V10.163ZM17.4897 5.68C17.4897 5.617 17.4917 5.555 17.4947 5.492L17.4147 5.43C16.6357 5.64219 15.8115 5.61989 15.0452 5.36588C14.2789 5.11187 13.6046 4.63744 13.1067 4.002L12.2027 4.004C11.7066 4.63674 11.0354 5.10966 10.2726 5.36392C9.50986 5.61817 8.68917 5.64255 7.91266 5.434L7.81766 5.51C7.85531 6.41268 7.59435 7.30259 7.07515 8.04197C6.55596 8.78135 5.8075 9.32895 4.94566 9.6C5.44847 10.2988 5.71857 11.1381 5.71766 11.999C5.71766 12.881 5.43766 13.714 4.94566 14.399C5.8075 14.67 6.55596 15.2176 7.07515 15.957C7.59435 16.6964 7.85531 17.5863 7.81766 18.489L7.91366 18.564C8.69005 18.3562 9.51037 18.3809 10.2728 18.6351C11.0353 18.8894 11.7063 19.3619 12.2027 19.994L13.1067 19.996C13.6043 19.3604 14.2784 18.8859 15.0446 18.6319C15.8108 18.3778 16.6349 18.3556 17.4137 18.568L17.4937 18.506C17.4525 17.6005 17.7119 16.7068 18.2315 15.9642C18.7512 15.2215 19.5019 14.6716 20.3667 14.4C19.8634 13.701 19.593 12.8613 19.5937 12C19.5937 11.118 19.8747 10.284 20.3667 9.6C19.5326 9.33781 18.804 8.81638 18.2868 8.11155C17.7695 7.40672 17.4906 6.55526 17.4907 5.681L17.4897 5.68ZM12.6667 16C11.6058 16 10.5884 15.5786 9.83823 14.8284C9.08808 14.0783 8.66666 13.0609 8.66666 12C8.66666 10.9391 9.08808 9.92172 9.83823 9.17157C10.5884 8.42143 11.6058 8 12.6667 8C13.7275 8 14.7449 8.42143 15.4951 9.17157C16.2452 9.92172 16.6667 10.9391 16.6667 12C16.6667 13.0609 16.2452 14.0783 15.4951 14.8284C14.7449 15.5786 13.7275 16 12.6667 16ZM12.6667 14C13.1971 14 13.7058 13.7893 14.0809 13.4142C14.4559 13.0391 14.6667 12.5304 14.6667 12C14.6667 11.4696 14.4559 10.9609 14.0809 10.5858C13.7058 10.2107 13.1971 10 12.6667 10C12.1362 10 11.6275 10.2107 11.2524 10.5858C10.8774 10.9609 10.6667 11.4696 10.6667 12C10.6667 12.5304 10.8774 13.0391 11.2524 13.4142C11.6275 13.7893 12.1362 14 12.6667 14Z" fill="#475569"/>
</svg>
