<svg width="25" height="24" viewBox="0 0 25 24" fill="none" xmlns="http://www.w3.org/2000/svg">
<path d="M4.33331 18.59C4.33331 18.8552 4.22796 19.1096 4.04042 19.2971C3.85288 19.4846 3.59853 19.59 3.33331 19.59C3.0681 19.59 2.81374 19.4846 2.62621 19.2971C2.43867 19.1096 2.33331 18.8552 2.33331 18.59V12.5C2.33331 6.977 6.81031 2.5 12.3333 2.5C17.8563 2.5 22.3333 6.977 22.3333 12.5V15.586C22.3333 15.8512 22.228 16.1056 22.0404 16.2931C21.8529 16.4806 21.5985 16.586 21.3333 16.586C21.0681 16.586 20.8137 16.4806 20.6262 16.2931C20.4387 16.1056 20.3333 15.8512 20.3333 15.586V12.5C20.3333 10.3783 19.4905 8.34344 17.9902 6.84315C16.4899 5.34285 14.455 4.5 12.3333 4.5C10.2116 4.5 8.17675 5.34285 6.67646 6.84315C5.17617 8.34344 4.33331 10.3783 4.33331 12.5V18.59ZM4.33331 12.5H6.33331C6.86375 12.5 7.37245 12.7107 7.74753 13.0858C8.1226 13.4609 8.33331 13.9696 8.33331 14.5V19.5C8.33331 20.0304 8.1226 20.5391 7.74753 20.9142C7.37245 21.2893 6.86375 21.5 6.33331 21.5H4.33331C3.80288 21.5 3.29417 21.2893 2.9191 20.9142C2.54403 20.5391 2.33331 20.0304 2.33331 19.5V14.5C2.33331 13.9696 2.54403 13.4609 2.9191 13.0858C3.29417 12.7107 3.80288 12.5 4.33331 12.5ZM4.33331 14.5V19.5H6.33331V14.5H4.33331ZM18.3333 12.5H20.3333C20.8637 12.5 21.3725 12.7107 21.7475 13.0858C22.1226 13.4609 22.3333 13.9696 22.3333 14.5V19.5C22.3333 20.0304 22.1226 20.5391 21.7475 20.9142C21.3725 21.2893 20.8637 21.5 20.3333 21.5H18.3333C17.8029 21.5 17.2942 21.2893 16.9191 20.9142C16.544 20.5391 16.3333 20.0304 16.3333 19.5V14.5C16.3333 13.9696 16.544 13.4609 16.9191 13.0858C17.2942 12.7107 17.8029 12.5 18.3333 12.5ZM18.3333 14.5V19.5H20.3333V14.5H18.3333Z" fill="#475569"/>
</svg>
