<svg width="65" height="64" viewBox="0 0 65 64" fill="none" xmlns="http://www.w3.org/2000/svg">
<path d="M18.6542 10.6667H46.8352C46.8352 10.6667 44.4869 46.019 32.7448 46.019C27.0087 46.019 23.5143 37.5827 21.4403 28.9523C19.2686 19.9159 18.6542 10.6667 18.6542 10.6667Z" stroke="#BE123C" stroke-width="1.5" stroke-linecap="round" stroke-linejoin="round"/>
<path d="M46.8352 10.6667C46.8352 10.6667 49.2917 8.04623 51.3333 7.99999C55.3333 7.90943 56.0728 10.6667 56.0728 10.6667C56.8557 12.2921 57.4819 16.5181 53.7245 20.4191C49.9669 24.32 45.7608 27.7333 44.0491 28.9523" stroke="#BE123C" stroke-width="1.5" stroke-linecap="round" stroke-linejoin="round"/>
<path d="M18.6541 10.6667C18.6541 10.6667 16.0946 8.01637 13.9999 8.00002C9.99989 7.9688 9.2604 10.6667 9.2604 10.6667C8.47758 12.2921 7.85134 16.5181 11.6088 20.4191C15.3663 24.32 19.7286 27.7333 21.4401 28.9525" stroke="#BE123C" stroke-width="1.5" stroke-linecap="round" stroke-linejoin="round"/>
<path d="M23.351 53.3334C23.351 48.4572 32.7446 46.019 32.7446 46.019C32.7446 46.019 42.1384 48.4572 42.1384 53.3334H23.351Z" stroke="#BE123C" stroke-width="1.5" stroke-linecap="round" stroke-linejoin="round"/>
</svg>
