<svg width="33" height="32" viewBox="0 0 33 32" fill="none" xmlns="http://www.w3.org/2000/svg">
<path fill-rule="evenodd" clip-rule="evenodd" d="M16.9605 32C25.797 32 32.9605 24.8366 32.9605 16C32.9605 7.16345 25.797 0 16.9605 0C8.12388 0 0.960449 7.16345 0.960449 16C0.960449 24.8366 8.12388 32 16.9605 32ZM21.9519 7.45348C22.1949 6.59044 21.3574 6.08011 20.5925 6.62504L9.91495 14.2317C9.08543 14.8226 9.21591 16 10.1109 16H12.9226V15.9782H18.4025L13.9374 17.5537L11.969 24.5466C11.7261 25.4096 12.5635 25.9199 13.3285 25.375L24.006 17.7684C24.8355 17.1774 24.705 16 23.81 16H19.5462L21.9519 7.45348Z" fill="#94A3B8"/>
</svg>
