<svg width="22" height="32" viewBox="0 0 22 32" fill="none" xmlns="http://www.w3.org/2000/svg">
<path d="M10.166 19.9817V28.1025C10.166 28.4138 10.0424 28.7124 9.82221 28.9324C9.60217 29.1526 9.30363 29.2762 8.99228 29.2762C8.68104 29.2762 8.38249 29.1526 8.16234 28.9324C7.94219 28.7124 7.81853 28.4138 7.81853 28.1025V19.993C8.14538 20.2317 8.53715 20.3649 8.94173 20.3749C9.3827 20.3874 9.81479 20.2487 10.166 19.9817ZM20.1625 17.6343C19.8646 17.6343 19.5789 17.7526 19.3683 17.9632C19.1577 18.1738 19.0393 18.4596 19.0393 18.7575V20.1727C19.0393 20.484 19.163 20.7826 19.3831 21.0026C19.6032 21.2228 19.9017 21.3464 20.2131 21.3464C20.5244 21.3464 20.823 21.2228 21.043 21.0026C21.2631 20.7826 21.3868 20.484 21.3868 20.1727V18.8136C21.3956 18.6526 21.3695 18.4915 21.3104 18.3414C21.2513 18.1914 21.1607 18.0557 21.0444 17.9438C20.9283 17.8319 20.7894 17.7464 20.6373 17.6929C20.4851 17.6395 20.3231 17.6195 20.1625 17.6343ZM5.26886 23.0593C4.8647 23.0472 4.47344 22.9142 4.14566 22.6774V30.8206C4.14566 31.1335 4.26991 31.4335 4.49109 31.6546C4.71226 31.8758 5.01223 32 5.32502 32C5.63781 32 5.93779 31.8758 6.15896 31.6546C6.38014 31.4335 6.50438 31.1335 6.50438 30.8206V22.7336C6.1376 22.9707 5.70484 23.0848 5.26886 23.0593ZM16.5009 15.1969C16.3487 15.1893 16.1966 15.2127 16.0537 15.2658C15.911 15.3188 15.7805 15.4003 15.67 15.5053C15.5597 15.6105 15.472 15.7368 15.412 15.8769C15.3522 16.017 15.3213 16.1678 15.3215 16.3201V22.5763C15.3215 22.8892 15.4457 23.1892 15.6669 23.4103C15.8882 23.6315 16.1881 23.7557 16.5009 23.7557C16.8137 23.7557 17.1137 23.6315 17.3349 23.4103C17.556 23.1892 17.6802 22.8892 17.6802 22.5763V16.3987C17.6892 16.2367 17.6629 16.0746 17.6032 15.9236C17.5434 15.7727 17.4518 15.6364 17.3343 15.5243C17.2168 15.4122 17.0765 15.3269 16.923 15.2743C16.7694 15.2216 16.6062 15.2029 16.4447 15.2194L16.5009 15.1969ZM12.7718 17.6006C12.3487 17.5976 11.937 17.4643 11.5925 17.2187V25.3843C11.5925 25.6972 11.7167 25.9972 11.9379 26.2183C12.1591 26.4395 12.459 26.5637 12.7718 26.5637C13.0847 26.5637 13.3846 26.4395 13.6058 26.2183C13.827 25.9972 13.9512 25.6972 13.9512 25.3843V17.2299C13.5949 17.4953 13.1599 17.6337 12.7157 17.623L12.7718 17.6006ZM2.7192 23.8568V1.04458C2.71624 0.766506 2.6037 0.500847 2.40601 0.305264C2.20833 0.109681 1.94147 -1.12311e-05 1.66339 8.625e-10H1.41628C1.1382 -1.12311e-05 0.871339 0.109681 0.673656 0.305264C0.475972 0.500847 0.363428 0.766506 0.360474 1.04458V23.8568C0.360474 24.1368 0.471716 24.4054 0.669713 24.6034C0.867711 24.8014 1.13627 24.9126 1.41628 24.9126H1.66339C1.94341 24.9126 2.21196 24.8014 2.40996 24.6034C2.60797 24.4054 2.7192 24.1368 2.7192 23.8568ZM5.39241 22.1945H5.14531C4.8653 22.1945 4.59674 22.0833 4.39874 21.8852C4.20074 21.6872 4.0895 21.4187 4.0895 21.1386V3.76272C4.09247 3.48466 4.205 3.21898 4.40268 3.02341C4.60037 2.82783 4.86723 2.71814 5.14531 2.71815H5.39241C5.6705 2.71814 5.93736 2.82783 6.13504 3.02341C6.33272 3.21898 6.44527 3.48466 6.44822 3.76272V21.1611C6.44822 21.4411 6.33698 21.7097 6.13898 21.9077C5.94099 22.1057 5.67243 22.2169 5.39241 22.2169V22.1945ZM9.11021 19.5212H8.85187C8.57489 19.5212 8.30914 19.4112 8.11326 19.2153C7.91737 19.0194 7.8073 18.7538 7.8073 18.4767V6.45841C7.80584 6.32029 7.83178 6.18325 7.88356 6.05521C7.93534 5.92718 8.01206 5.8107 8.10921 5.71251C8.20637 5.61432 8.32206 5.53637 8.44954 5.48318C8.57703 5.42998 8.71372 5.40259 8.85187 5.4026H9.11021C9.38832 5.40556 9.65395 5.5181 9.8495 5.71578C10.0452 5.91346 10.1548 6.18032 10.1548 6.45841V18.4767C10.1548 18.7538 10.0447 19.0194 9.84883 19.2153C9.65294 19.4112 9.3873 19.5212 9.11021 19.5212ZM12.828 16.7694H12.5921C12.314 16.7694 12.0472 16.6598 11.8495 16.4641C11.6518 16.2686 11.5392 16.0029 11.5363 15.7248V9.25518C11.5271 9.11096 11.5476 8.9664 11.5965 8.83038C11.6454 8.69448 11.7218 8.56991 11.8207 8.46467C11.9197 8.35931 12.0392 8.27552 12.1719 8.21824C12.3046 8.16107 12.4476 8.13164 12.5921 8.13198H12.8392C13.1193 8.13198 13.3878 8.24317 13.5858 8.44119C13.7839 8.63921 13.895 8.90777 13.895 9.18779V15.7024C13.8965 15.842 13.8703 15.9805 13.8179 16.1098C13.7655 16.2392 13.688 16.357 13.5898 16.4562C13.4916 16.5554 13.3748 16.6342 13.2458 16.688C13.117 16.7418 12.9789 16.7694 12.8392 16.7694H12.828ZM16.557 14.3545H16.3099C16.0299 14.3545 15.7614 14.2433 15.5633 14.0453C15.3653 13.8473 15.2541 13.5787 15.2541 13.2987V11.6251C15.257 11.347 15.3696 11.0814 15.5673 10.8858C15.765 10.6902 16.0318 10.5806 16.3099 10.5806H16.557C16.8351 10.5806 17.102 10.6902 17.2997 10.8858C17.4974 11.0814 17.6099 11.347 17.6128 11.6251V13.2987C17.6128 13.5768 17.5032 13.8437 17.3076 14.0414C17.112 14.239 16.8464 14.3516 16.5683 14.3545H16.557Z" fill="#94A3B8"/>
</svg>
