<svg width="134" height="32" viewBox="0 0 134 32" fill="none" xmlns="http://www.w3.org/2000/svg">
<path fill-rule="evenodd" clip-rule="evenodd" d="M16.9605 32C25.797 32 32.9605 24.8366 32.9605 16C32.9605 7.16345 25.797 0 16.9605 0C8.12388 0 0.960449 7.16345 0.960449 16C0.960449 24.8366 8.12388 32 16.9605 32ZM21.9519 7.45348C22.1949 6.59044 21.3574 6.08011 20.5925 6.62504L9.91495 14.2317C9.08543 14.8226 9.21591 16 10.1109 16H12.9226V15.9782H18.4025L13.9374 17.5537L11.969 24.5466C11.7261 25.4096 12.5635 25.9199 13.3285 25.375L24.006 17.7684C24.8355 17.1774 24.705 16 23.81 16H19.5462L21.9519 7.45348Z" fill="#94A3B8"/>
<path d="M54.8238 21.2578V24H42.73V21.2578H54.8238ZM54.648 8.89453L44.2886 24H41.8159V21.9844L52.2574 6.9375H54.648V8.89453ZM53.4409 6.9375V9.69141H41.8277V6.9375H53.4409ZM56.0542 17.7891V17.543C56.0542 16.6133 56.187 15.7578 56.4527 14.9766C56.7183 14.1875 57.105 13.5039 57.6128 12.9258C58.1206 12.3477 58.7456 11.8984 59.4878 11.5781C60.23 11.25 61.0816 11.0859 62.0425 11.0859C63.0034 11.0859 63.8589 11.25 64.6089 11.5781C65.3589 11.8984 65.9878 12.3477 66.4956 12.9258C67.0113 13.5039 67.4019 14.1875 67.6675 14.9766C67.9331 15.7578 68.0659 16.6133 68.0659 17.543V17.7891C68.0659 18.7109 67.9331 19.5664 67.6675 20.3555C67.4019 21.1367 67.0113 21.8203 66.4956 22.4062C65.9878 22.9844 65.3628 23.4336 64.6206 23.7539C63.8784 24.0742 63.0269 24.2344 62.0659 24.2344C61.105 24.2344 60.2495 24.0742 59.4995 23.7539C58.7574 23.4336 58.1284 22.9844 57.6128 22.4062C57.105 21.8203 56.7183 21.1367 56.4527 20.3555C56.187 19.5664 56.0542 18.7109 56.0542 17.7891ZM59.4292 17.543V17.7891C59.4292 18.3203 59.4761 18.8164 59.5699 19.2773C59.6636 19.7383 59.812 20.1445 60.0152 20.4961C60.2261 20.8398 60.4995 21.1094 60.8355 21.3047C61.1714 21.5 61.5816 21.5977 62.0659 21.5977C62.5347 21.5977 62.937 21.5 63.273 21.3047C63.6089 21.1094 63.8784 20.8398 64.0816 20.4961C64.2847 20.1445 64.4331 19.7383 64.5269 19.2773C64.6284 18.8164 64.6792 18.3203 64.6792 17.7891V17.543C64.6792 17.0273 64.6284 16.543 64.5269 16.0898C64.4331 15.6289 64.2808 15.2227 64.0699 14.8711C63.8667 14.5117 63.5972 14.2305 63.2613 14.0273C62.9253 13.8242 62.5191 13.7227 62.0425 13.7227C61.5659 13.7227 61.1597 13.8242 60.8238 14.0273C60.4956 14.2305 60.2261 14.5117 60.0152 14.8711C59.812 15.2227 59.6636 15.6289 59.5699 16.0898C59.4761 16.543 59.4292 17.0273 59.4292 17.543ZM69.6011 17.7891V17.543C69.6011 16.6133 69.7339 15.7578 69.9995 14.9766C70.2652 14.1875 70.6519 13.5039 71.1597 12.9258C71.6675 12.3477 72.2925 11.8984 73.0347 11.5781C73.7769 11.25 74.6284 11.0859 75.5894 11.0859C76.5503 11.0859 77.4058 11.25 78.1558 11.5781C78.9058 11.8984 79.5347 12.3477 80.0425 12.9258C80.5581 13.5039 80.9488 14.1875 81.2144 14.9766C81.48 15.7578 81.6128 16.6133 81.6128 17.543V17.7891C81.6128 18.7109 81.48 19.5664 81.2144 20.3555C80.9488 21.1367 80.5581 21.8203 80.0425 22.4062C79.5347 22.9844 78.9097 23.4336 78.1675 23.7539C77.4253 24.0742 76.5738 24.2344 75.6128 24.2344C74.6519 24.2344 73.7964 24.0742 73.0464 23.7539C72.3042 23.4336 71.6753 22.9844 71.1597 22.4062C70.6519 21.8203 70.2652 21.1367 69.9995 20.3555C69.7339 19.5664 69.6011 18.7109 69.6011 17.7891ZM72.9761 17.543V17.7891C72.9761 18.3203 73.023 18.8164 73.1167 19.2773C73.2105 19.7383 73.3589 20.1445 73.562 20.4961C73.773 20.8398 74.0464 21.1094 74.3824 21.3047C74.7183 21.5 75.1284 21.5977 75.6128 21.5977C76.0816 21.5977 76.4839 21.5 76.8199 21.3047C77.1558 21.1094 77.4253 20.8398 77.6284 20.4961C77.8316 20.1445 77.98 19.7383 78.0738 19.2773C78.1753 18.8164 78.2261 18.3203 78.2261 17.7891V17.543C78.2261 17.0273 78.1753 16.543 78.0738 16.0898C77.98 15.6289 77.8277 15.2227 77.6167 14.8711C77.4136 14.5117 77.1441 14.2305 76.8081 14.0273C76.4722 13.8242 76.0659 13.7227 75.5894 13.7227C75.1128 13.7227 74.7066 13.8242 74.3706 14.0273C74.0425 14.2305 73.773 14.5117 73.562 14.8711C73.3589 15.2227 73.2105 15.6289 73.1167 16.0898C73.023 16.543 72.9761 17.0273 72.9761 17.543ZM87.062 13.9453V24H83.6753V11.3203H86.8511L87.062 13.9453ZM86.5933 17.2148H85.6558C85.6558 16.332 85.7613 15.5195 85.9722 14.7773C86.1909 14.0273 86.5074 13.3789 86.9214 12.832C87.3433 12.2773 87.8628 11.8477 88.48 11.543C89.0972 11.2383 89.812 11.0859 90.6245 11.0859C91.187 11.0859 91.7027 11.1719 92.1714 11.3438C92.6402 11.5078 93.0425 11.7695 93.3784 12.1289C93.7222 12.4805 93.9878 12.9414 94.1753 13.5117C94.3628 14.0742 94.4566 14.75 94.4566 15.5391V24H91.0816V15.9141C91.0816 15.3359 91.0034 14.8906 90.8472 14.5781C90.6909 14.2656 90.4683 14.0469 90.1792 13.9219C89.898 13.7969 89.5581 13.7344 89.1597 13.7344C88.7222 13.7344 88.3394 13.8242 88.0113 14.0039C87.6909 14.1836 87.4253 14.4336 87.2144 14.7539C87.0034 15.0664 86.8472 15.4336 86.7456 15.8555C86.6441 16.2773 86.5933 16.7305 86.5933 17.2148ZM94.1402 16.8281L92.9331 16.9805C92.9331 16.1523 93.0347 15.3828 93.2378 14.6719C93.4488 13.9609 93.7574 13.3359 94.1636 12.7969C94.5777 12.2578 95.0894 11.8398 95.6988 11.543C96.3081 11.2383 97.0113 11.0859 97.8081 11.0859C98.4175 11.0859 98.9722 11.1758 99.4722 11.3555C99.9722 11.5273 100.398 11.8047 100.75 12.1875C101.109 12.5625 101.382 13.0547 101.57 13.6641C101.765 14.2734 101.863 15.0195 101.863 15.9023V24H98.4761V15.9023C98.4761 15.3164 98.398 14.8711 98.2417 14.5664C98.0933 14.2539 97.8745 14.0391 97.5855 13.9219C97.3042 13.7969 96.9683 13.7344 96.5777 13.7344C96.1714 13.7344 95.8159 13.8164 95.5113 13.9805C95.2066 14.1367 94.9527 14.3555 94.7495 14.6367C94.5464 14.918 94.3941 15.2461 94.2925 15.6211C94.1909 15.9883 94.1402 16.3906 94.1402 16.8281ZM110.312 24.2344C109.328 24.2344 108.445 24.0781 107.664 23.7656C106.882 23.4453 106.218 23.0039 105.671 22.4414C105.132 21.8789 104.718 21.2266 104.429 20.4844C104.14 19.7344 103.996 18.9375 103.996 18.0938V17.625C103.996 16.6641 104.132 15.7852 104.406 14.9883C104.679 14.1914 105.07 13.5 105.578 12.9141C106.093 12.3281 106.718 11.8789 107.453 11.5664C108.187 11.2461 109.015 11.0859 109.937 11.0859C110.835 11.0859 111.632 11.2344 112.328 11.5312C113.023 11.8281 113.605 12.25 114.074 12.7969C114.55 13.3438 114.91 14 115.152 14.7656C115.394 15.5234 115.515 16.3672 115.515 17.2969V18.7031H105.437V16.4531H112.199V16.1953C112.199 15.7266 112.113 15.3086 111.941 14.9414C111.777 14.5664 111.527 14.2695 111.191 14.0508C110.855 13.832 110.425 13.7227 109.902 13.7227C109.457 13.7227 109.074 13.8203 108.753 14.0156C108.433 14.2109 108.171 14.4844 107.968 14.8359C107.773 15.1875 107.625 15.6016 107.523 16.0781C107.429 16.5469 107.382 17.0625 107.382 17.625V18.0938C107.382 18.6016 107.453 19.0703 107.593 19.5C107.742 19.9297 107.949 20.3008 108.214 20.6133C108.488 20.9258 108.816 21.168 109.199 21.3398C109.589 21.5117 110.031 21.5977 110.523 21.5977C111.132 21.5977 111.699 21.4805 112.222 21.2461C112.753 21.0039 113.21 20.6406 113.593 20.1562L115.234 21.9375C114.968 22.3203 114.605 22.6875 114.144 23.0391C113.691 23.3906 113.144 23.6797 112.503 23.9062C111.863 24.125 111.132 24.2344 110.312 24.2344ZM120.812 14.0859V24H117.437V11.3203H120.613L120.812 14.0859ZM124.632 11.2383L124.574 14.3672C124.41 14.3438 124.21 14.3242 123.976 14.3086C123.75 14.2852 123.543 14.2734 123.355 14.2734C122.878 14.2734 122.464 14.3359 122.113 14.4609C121.769 14.5781 121.48 14.7539 121.246 14.9883C121.019 15.2227 120.847 15.5078 120.73 15.8438C120.621 16.1797 120.558 16.5625 120.543 16.9922L119.863 16.7812C119.863 15.9609 119.945 15.207 120.109 14.5195C120.273 13.8242 120.511 13.2188 120.824 12.7031C121.144 12.1875 121.535 11.7891 121.996 11.5078C122.457 11.2266 122.984 11.0859 123.578 11.0859C123.765 11.0859 123.957 11.1016 124.152 11.1328C124.347 11.1562 124.507 11.1914 124.632 11.2383ZM129.601 14.0859V24H126.226V11.3203H129.402L129.601 14.0859ZM133.421 11.2383L133.363 14.3672C133.199 14.3438 133 14.3242 132.765 14.3086C132.539 14.2852 132.332 14.2734 132.144 14.2734C131.668 14.2734 131.253 14.3359 130.902 14.4609C130.558 14.5781 130.269 14.7539 130.035 14.9883C129.808 15.2227 129.636 15.5078 129.519 15.8438C129.41 16.1797 129.347 16.5625 129.332 16.9922L128.652 16.7812C128.652 15.9609 128.734 15.207 128.898 14.5195C129.062 13.8242 129.3 13.2188 129.613 12.7031C129.933 12.1875 130.324 11.7891 130.785 11.5078C131.246 11.2266 131.773 11.0859 132.367 11.0859C132.554 11.0859 132.746 11.1016 132.941 11.1328C133.136 11.1562 133.296 11.1914 133.421 11.2383Z" fill="#94A3B8"/>
</svg>
