<svg width="167" height="32" viewBox="0 0 167 32" fill="none" xmlns="http://www.w3.org/2000/svg">
<path d="M37.7963 32H50.714L18.7141 0H5.79627L37.7963 32Z" fill="#94A3B8"/>
<path d="M25.3506 1.63716e-06L56.198 30.8474V0H47.8501V9.73909L38.111 0L25.3506 1.63716e-06Z" fill="#94A3B8"/>
<path d="M0.388428 1.07129V31.9999H8.73625V22.2607L18.4753 31.9999H31.3171L0.388428 1.07129Z" fill="#94A3B8"/>
<path d="M72.6589 9.85547L68.0183 24H64.28L70.6199 6.9375H72.9988L72.6589 9.85547ZM76.5144 24L71.8621 9.85547L71.4871 6.9375H73.8894L80.2644 24H76.5144ZM76.3035 17.6484V20.4023H67.2917V17.6484H76.3035ZM85.0105 14.0859V24H81.6355V11.3203H84.8113L85.0105 14.0859ZM88.8308 11.2383L88.7722 14.3672C88.6082 14.3438 88.4089 14.3242 88.1746 14.3086C87.948 14.2852 87.741 14.2734 87.5535 14.2734C87.0769 14.2734 86.6628 14.3359 86.3113 14.4609C85.9675 14.5781 85.6785 14.7539 85.4441 14.9883C85.2175 15.2227 85.0457 15.5078 84.9285 15.8438C84.8191 16.1797 84.7566 16.5625 84.741 16.9922L84.0613 16.7812C84.0613 15.9609 84.1433 15.207 84.3074 14.5195C84.4714 13.8242 84.7097 13.2188 85.0222 12.7031C85.3425 12.1875 85.7332 11.7891 86.1941 11.5078C86.655 11.2266 87.1824 11.0859 87.7761 11.0859C87.9636 11.0859 88.155 11.1016 88.3503 11.1328C88.5457 11.1562 88.7058 11.1914 88.8308 11.2383ZM97.2214 11.3203V13.7109H89.8386V11.3203H97.2214ZM91.6667 8.19141H95.0417V20.1797C95.0417 20.5469 95.0886 20.8281 95.1824 21.0234C95.2839 21.2188 95.4324 21.3555 95.6277 21.4336C95.823 21.5039 96.0691 21.5391 96.366 21.5391C96.5769 21.5391 96.7644 21.5312 96.9285 21.5156C97.1003 21.4922 97.2449 21.4688 97.3621 21.4453L97.3738 23.9297C97.0847 24.0234 96.7722 24.0977 96.4363 24.1523C96.1003 24.207 95.7292 24.2344 95.323 24.2344C94.5808 24.2344 93.9324 24.1133 93.3777 23.8711C92.8308 23.6211 92.4089 23.2227 92.1121 22.6758C91.8152 22.1289 91.6667 21.4102 91.6667 20.5195V8.19141ZM105.507 20.4375L109.526 6.9375H113.44L107.499 24H104.921L105.507 20.4375ZM101.803 6.9375L105.811 20.4375L106.421 24H103.819L97.9128 6.9375H101.803ZM120.143 24.2344C119.159 24.2344 118.276 24.0781 117.495 23.7656C116.714 23.4453 116.05 23.0039 115.503 22.4414C114.964 21.8789 114.55 21.2266 114.26 20.4844C113.971 19.7344 113.827 18.9375 113.827 18.0938V17.625C113.827 16.6641 113.964 15.7852 114.237 14.9883C114.51 14.1914 114.901 13.5 115.409 12.9141C115.925 12.3281 116.55 11.8789 117.284 11.5664C118.018 11.2461 118.846 11.0859 119.768 11.0859C120.667 11.0859 121.464 11.2344 122.159 11.5312C122.854 11.8281 123.436 12.25 123.905 12.7969C124.382 13.3438 124.741 14 124.983 14.7656C125.225 15.5234 125.346 16.3672 125.346 17.2969V18.7031H115.268V16.4531H122.03V16.1953C122.03 15.7266 121.944 15.3086 121.772 14.9414C121.608 14.5664 121.358 14.2695 121.022 14.0508C120.686 13.832 120.257 13.7227 119.733 13.7227C119.288 13.7227 118.905 13.8203 118.585 14.0156C118.264 14.2109 118.003 14.4844 117.8 14.8359C117.604 15.1875 117.456 15.6016 117.354 16.0781C117.26 16.5469 117.214 17.0625 117.214 17.625V18.0938C117.214 18.6016 117.284 19.0703 117.425 19.5C117.573 19.9297 117.78 20.3008 118.046 20.6133C118.319 20.9258 118.647 21.168 119.03 21.3398C119.421 21.5117 119.862 21.5977 120.354 21.5977C120.964 21.5977 121.53 21.4805 122.053 21.2461C122.585 21.0039 123.042 20.6406 123.425 20.1562L125.065 21.9375C124.8 22.3203 124.436 22.6875 123.975 23.0391C123.522 23.3906 122.975 23.6797 122.335 23.9062C121.694 24.125 120.964 24.2344 120.143 24.2344ZM130.573 14.0273V24H127.198V11.3203H130.362L130.573 14.0273ZM130.081 17.2148H129.167C129.167 16.2773 129.288 15.4336 129.53 14.6836C129.772 13.9258 130.112 13.2812 130.55 12.75C130.987 12.2109 131.507 11.8008 132.108 11.5195C132.718 11.2305 133.397 11.0859 134.147 11.0859C134.741 11.0859 135.284 11.1719 135.776 11.3438C136.268 11.5156 136.69 11.7891 137.042 12.1641C137.401 12.5391 137.675 13.0352 137.862 13.6523C138.057 14.2695 138.155 15.0234 138.155 15.9141V24H134.757V15.9023C134.757 15.3398 134.678 14.9023 134.522 14.5898C134.366 14.2773 134.135 14.0586 133.831 13.9336C133.534 13.8008 133.167 13.7344 132.729 13.7344C132.276 13.7344 131.882 13.8242 131.546 14.0039C131.218 14.1836 130.944 14.4336 130.725 14.7539C130.514 15.0664 130.354 15.4336 130.245 15.8555C130.135 16.2773 130.081 16.7305 130.081 17.2148ZM148.221 20.9648V11.3203H151.596V24H148.421L148.221 20.9648ZM148.596 18.3633L149.593 18.3398C149.593 19.1836 149.495 19.9688 149.3 20.6953C149.104 21.4141 148.811 22.0391 148.421 22.5703C148.03 23.0938 147.538 23.5039 146.944 23.8008C146.35 24.0898 145.651 24.2344 144.846 24.2344C144.229 24.2344 143.659 24.1484 143.135 23.9766C142.62 23.7969 142.175 23.5195 141.8 23.1445C141.432 22.7617 141.143 22.2734 140.932 21.6797C140.729 21.0781 140.628 20.3555 140.628 19.5117V11.3203H144.003V19.5352C144.003 19.9102 144.046 20.2266 144.132 20.4844C144.225 20.7422 144.354 20.9531 144.518 21.1172C144.682 21.2812 144.874 21.3984 145.093 21.4688C145.319 21.5391 145.569 21.5742 145.843 21.5742C146.538 21.5742 147.085 21.4336 147.483 21.1523C147.889 20.8711 148.175 20.4883 148.339 20.0039C148.51 19.5117 148.596 18.9648 148.596 18.3633ZM160.01 24.2344C159.026 24.2344 158.143 24.0781 157.362 23.7656C156.581 23.4453 155.917 23.0039 155.37 22.4414C154.831 21.8789 154.417 21.2266 154.128 20.4844C153.839 19.7344 153.694 18.9375 153.694 18.0938V17.625C153.694 16.6641 153.831 15.7852 154.104 14.9883C154.378 14.1914 154.768 13.5 155.276 12.9141C155.792 12.3281 156.417 11.8789 157.151 11.5664C157.885 11.2461 158.714 11.0859 159.635 11.0859C160.534 11.0859 161.331 11.2344 162.026 11.5312C162.721 11.8281 163.303 12.25 163.772 12.7969C164.249 13.3438 164.608 14 164.85 14.7656C165.093 15.5234 165.214 16.3672 165.214 17.2969V18.7031H155.135V16.4531H161.897V16.1953C161.897 15.7266 161.811 15.3086 161.639 14.9414C161.475 14.5664 161.225 14.2695 160.889 14.0508C160.553 13.832 160.124 13.7227 159.6 13.7227C159.155 13.7227 158.772 13.8203 158.452 14.0156C158.132 14.2109 157.87 14.4844 157.667 14.8359C157.471 15.1875 157.323 15.6016 157.221 16.0781C157.128 16.5469 157.081 17.0625 157.081 17.625V18.0938C157.081 18.6016 157.151 19.0703 157.292 19.5C157.44 19.9297 157.647 20.3008 157.913 20.6133C158.186 20.9258 158.514 21.168 158.897 21.3398C159.288 21.5117 159.729 21.5977 160.221 21.5977C160.831 21.5977 161.397 21.4805 161.921 21.2461C162.452 21.0039 162.909 20.6406 163.292 20.1562L164.932 21.9375C164.667 22.3203 164.303 22.6875 163.843 23.0391C163.389 23.3906 162.843 23.6797 162.202 23.9062C161.561 24.125 160.831 24.2344 160.01 24.2344Z" fill="#94A3B8"/>
</svg>
