<svg width="64" height="64" viewBox="0 0 64 64" fill="none" xmlns="http://www.w3.org/2000/svg">
<path d="M37.3333 37.3333H18.6666C12.7756 37.3333 7.99998 32.5576 7.99998 26.6667C7.99998 20.7756 12.7756 16 18.6666 16H37.3333M37.3333 37.3333V16V37.3333ZM37.3333 37.3333L53.6061 46.632C54.6728 47.2416 56 46.4715 56 45.2429V8.09042C56 6.86188 54.6728 6.0917 53.6061 6.70122L37.3333 16V37.3333Z" stroke="#BE123C" stroke-width="1.5"/>
<path d="M20.6857 51.4669L18.6666 37.3333H29.3333L31.1392 49.9735C31.5936 53.1543 29.1253 55.9999 25.9124 55.9999C23.2849 55.9999 21.0573 54.0679 20.6857 51.4669Z" stroke="#BE123C" stroke-width="1.5"/>
</svg>
