<svg width="24" height="24" viewBox="0 0 24 24" fill="none" xmlns="http://www.w3.org/2000/svg">
<path d="M22 5.90704C21.2504 6.23442 20.4565 6.44908 19.644 6.54404C20.4968 6.04327 21.138 5.24915 21.448 4.31004C20.64 4.78037 19.7587 5.11164 18.841 5.29004C18.4545 4.88525 17.9897 4.56343 17.4748 4.34422C16.9598 4.12501 16.4056 4.01301 15.846 4.01504C13.58 4.01504 11.743 5.82504 11.743 8.05504C11.743 8.37104 11.779 8.68004 11.849 8.97504C10.2236 8.89774 8.63212 8.48245 7.17617 7.75568C5.72022 7.02891 4.43176 6.00662 3.393 4.75404C3.02883 5.36844 2.83742 6.06982 2.839 6.78404C2.8397 7.45201 3.00683 8.10927 3.32529 8.69644C3.64375 9.2836 4.1035 9.78215 4.663 10.147C4.01248 10.126 3.37602 9.95237 2.805 9.64004V9.69004C2.805 11.648 4.22 13.281 6.095 13.653C5.74261 13.7465 5.37958 13.7939 5.015 13.794C4.75 13.794 4.493 13.769 4.242 13.719C4.51008 14.527 5.02311 15.2314 5.70982 15.7344C6.39653 16.2374 7.22284 16.5141 8.074 16.526C6.61407 17.6506 4.82182 18.2581 2.979 18.253C2.647 18.253 2.321 18.233 2 18.197C3.88125 19.3877 6.06259 20.0183 8.289 20.015C15.836 20.015 19.962 13.858 19.962 8.51904L19.948 7.99604C20.7529 7.42971 21.4481 6.72189 22 5.90704Z" fill="#475569"/>
</svg>
